<?xml version="1.0" encoding="UTF-8"?>
<svg id="Layer_1" xmlns="http://www.w3.org/2000/svg" version="1.1" xmlns:xlink="http://www.w3.org/1999/xlink" viewBox="0 0 595.28 358.51">
  <!-- Generator: Adobe Illustrator 30.2.1, SVG Export Plug-In . SVG Version: 2.1.1 Build 1)  -->
  <defs>
    <style>
      .st0 {
        fill: #25336c;
      }

      .st1 {
        fill: #0c193c;
      }

      .st2 {
        fill: url(#linear-gradient);
      }
    </style>
    <linearGradient id="linear-gradient" x1="212.26" y1="157.32" x2="541.3" y2="157.32" gradientUnits="userSpaceOnUse">
      <stop offset="0" stop-color="#0c193c"/>
      <stop offset=".52" stop-color="#3a59a8"/>
      <stop offset="1" stop-color="#00b8db"/>
    </linearGradient>
  </defs>
  <path class="st1" d="M58.77,204.02l21.61-32.61c-6.98.62-13.04-.26-18.16-2.65-5.13-2.39-9.08-5.97-11.87-10.74-2.78-4.77-4.18-10.34-4.18-16.7s1.46-11.67,4.37-16.44c2.92-4.77,6.96-8.53,12.13-11.27,5.17-2.74,11.07-4.11,17.7-4.11s12.61,1.37,17.7,4.11c5.08,2.74,9.06,6.5,11.93,11.27,2.87,4.77,4.31,10.25,4.31,16.44,0,3.36-.42,6.74-1.26,10.14-.84,3.4-2.9,7.58-6.16,12.53l-26.51,40.04h-21.61ZM80.24,156.96c3.18,0,5.88-.75,8.09-2.25,2.21-1.5,3.89-3.45,5.04-5.83,1.15-2.39,1.72-4.91,1.72-7.56,0-3.98-1.28-7.4-3.84-10.27-2.56-2.87-6.19-4.31-10.87-4.31s-8.46,1.44-11.07,4.31c-2.61,2.87-3.91,6.3-3.91,10.27,0,2.65.57,5.17,1.72,7.56,1.15,2.39,2.85,4.33,5.1,5.83,2.25,1.5,4.93,2.25,8.02,2.25ZM146.78,205.75c-6.63,0-12.51-1.37-17.63-4.11-5.13-2.74-9.13-6.52-12-11.33-2.87-4.82-4.31-10.27-4.31-16.37,0-3.36.42-6.76,1.26-10.21.84-3.45,2.89-7.6,6.16-12.46l26.38-40.04h21.61l-21.48,32.61c6.89-.62,12.9.26,18.03,2.65,5.12,2.39,9.1,5.97,11.93,10.74,2.83,4.77,4.24,10.34,4.24,16.7s-1.46,11.56-4.37,16.37c-2.92,4.82-6.94,8.6-12.06,11.33-5.13,2.74-11.05,4.11-17.76,4.11ZM146.78,188.51c4.77,0,8.46-1.44,11.07-4.31,2.61-2.87,3.91-6.3,3.91-10.27,0-2.65-.58-5.17-1.72-7.56-1.15-2.39-2.83-4.33-5.04-5.83-2.21-1.5-4.91-2.25-8.09-2.25s-5.77.75-8.02,2.25c-2.25,1.5-3.96,3.45-5.1,5.83-1.15,2.39-1.72,4.91-1.72,7.56,0,3.98,1.3,7.4,3.91,10.27,2.61,2.87,6.21,4.31,10.8,4.31ZM188.16,204.02v-72.12h-16.04v-1.99l16.04-18.69h18.56v92.8h-18.56Z"/>
  <path class="st2" d="M532.77,184.77l7.33,7.33-13.04,13.04-7.54-7.54c-3.74,2.42-7.84,4.34-12.2,5.61-.31.09-.62.18-.95.26-.72.2-1.46.38-2.2.53-.4.1-.79.17-1.2.25-.4.07-.81.15-1.21.2-.3.06-.6.11-.89.15-2.13.29-4.32.46-6.53.46-.4,0-.81-.02-1.21-.02-9.2-.24-17.75-3.16-24.9-8.05l9.61-13.99c.39.28.78.55,1.18.81,4.27,2.76,9.33,4.14,15.2,4.14,2.25,0,4.4-.21,6.44-.65,2.37-.33,4.52-1.1,6.45-2.13l-18.65-18.65,13.04-13.04,18.08,18.08c1.9-4.23,2.85-8.95,2.85-14.13,0-5.61-1.16-10.74-3.44-15.39-2.29-4.65-5.51-8.38-9.7-11.18-4.19-2.8-9.2-4.21-15.07-4.21s-10.93,1.41-15.2,4.21c-4.28,2.8-7.55,6.54-9.83,11.18-1.89,3.84-3.01,8.02-3.33,12.54-.07.93-.11,1.88-.11,2.85s.03,1.88.11,2.81v9.23c-.02,6.96-1.56,13.11-4.61,18.47-.38.67-.78,1.32-1.2,1.96-2.96,4.47-6.88,8.03-11.77,10.68-.57.31-1.16.61-1.75.88-5.19,2.44-11.17,3.66-17.94,3.66-7.46,0-14.01-1.52-19.63-4.55-5.62-3.03-9.96-7.24-13.04-12.64-3.08-5.41-4.61-11.62-4.61-18.65v-48.34h18.44v46.36c0,6.51,1.56,11.62,4.68,15.35,3.11,3.74,7.83,5.6,14.16,5.6s11.04-1.87,14.17-5.6c3.11-3.73,4.68-8.84,4.68-15.35v-8.56c-.02-.48-.02-.97-.02-1.45s0-.97.02-1.45c.43-14.89,7.57-28.07,18.44-36.52,7.6-5.91,17.03-9.5,27.27-9.77.4,0,.81,0,1.21,0,.53,0,1.07,0,1.59.02,15.15.5,28.49,8.31,36.72,20.07.09.15.19.29.29.43,5.27,7.72,8.36,17.1,8.36,27.22,0,5.01-.76,9.85-2.17,14.4-1.46,4.71-3.62,9.1-6.36,13.05ZM270.48,155.81c-3.16-2.06-6.43-3.69-9.81-4.87-3.38-1.19-6.44-2.22-9.16-3.1-4.04-1.23-7.49-2.61-10.34-4.15-2.85-1.54-4.28-4.02-4.28-7.44,0-3.07,1.21-5.53,3.62-7.38,2.41-1.84,5.47-2.77,9.16-2.77,3.43,0,6.32.84,8.69,2.5,2.37,1.67,4.65,4.3,6.85,7.9l15.81-9.75c-3.43-5.44-7.55-9.66-12.38-12.65-4.83-2.98-10.85-4.48-18.05-4.48-6.5,0-12.19,1.14-17.06,3.43-4.87,2.29-8.67,5.49-11.4,9.62-2.72,4.13-4.08,8.96-4.08,14.49,0,6.94,2.11,12.54,6.32,16.8,4.22,4.26,9.88,7.31,16.99,9.16,3.77.97,7.27,2.02,10.47,3.16,3.21,1.14,5.77,2.63,7.71,4.48,1.93,1.84,2.9,4.3,2.9,7.38s-1.23,5.71-3.69,7.64c-2.46,1.93-5.84,2.9-10.14,2.9-4.04,0-7.86-1.07-11.46-3.23-3.6-2.15-6.59-5.6-8.96-10.34l-15.94,10.14c4.04,7.03,9.11,12.1,15.22,15.22,6.1,3.12,12.8,4.68,20.09,4.68s13.04-1.19,18.05-3.56,8.87-5.66,11.59-9.88c2.72-4.22,4.08-9.09,4.08-14.62s-1.01-9.62-3.03-13.04c-2.02-3.43-4.61-6.17-7.77-8.23ZM379.1,138.88c2.41,5.8,3.62,11.99,3.62,18.58s-1.21,12.76-3.62,18.51c-2.42,5.75-5.78,10.83-10.08,15.22-4.3,4.39-9.35,7.82-15.15,10.28-5.8,2.46-12.12,3.69-18.97,3.69s-13.2-1.23-19.04-3.69c-5.84-2.46-10.93-5.88-15.28-10.28-4.35-4.39-7.73-9.46-10.14-15.22-2.42-5.75-3.62-11.92-3.62-18.51s1.21-12.78,3.62-18.58c2.41-5.8,5.8-10.89,10.14-15.28,4.35-4.39,9.44-7.84,15.28-10.34,5.84-2.5,12.19-3.75,19.04-3.75s13.17,1.25,18.97,3.75c5.8,2.5,10.85,5.95,15.15,10.34,4.3,4.39,7.66,9.49,10.08,15.28ZM363.62,157.45c0-5.62-1.16-10.76-3.49-15.41-2.33-4.65-5.62-8.39-9.88-11.2-4.26-2.81-9.38-4.22-15.35-4.22s-11.13,1.41-15.48,4.22c-4.35,2.81-7.69,6.54-10.01,11.2-2.33,4.66-3.49,9.79-3.49,15.41s1.16,10.63,3.49,15.28c2.33,4.66,5.67,8.37,10.01,11.13,4.35,2.77,9.51,4.15,15.48,4.15s11.09-1.38,15.35-4.15c4.26-2.77,7.55-6.48,9.88-11.13,2.33-4.65,3.49-9.75,3.49-15.28Z"/>
  <path class="st0" d="M157,243.66l-5.07-17.69h1.87l4.37,15.29,4.6-15.29h2.08l4.61,15.31,4.36-15.31h1.79l-5.05,17.69h-2.12l-4.62-15.36-4.62,15.36h-2.19Z"/>
  <path class="st0" d="M182.54,230.71c1.87,0,3.38.66,4.54,1.98,1.15,1.32,1.73,2.89,1.73,4.69,0,.19-.02.45-.05.78h-11.1c.17,1.28.71,2.3,1.63,3.05.92.75,2.05,1.12,3.4,1.12.96,0,1.79-.2,2.49-.59.7-.4,1.23-.91,1.58-1.55l1.47.86c-.56.89-1.31,1.6-2.27,2.12-.96.52-2.06.78-3.29.78-1.99,0-3.61-.62-4.85-1.87-1.25-1.25-1.87-2.83-1.87-4.75s.61-3.46,1.85-4.73c1.23-1.26,2.81-1.9,4.75-1.9ZM182.54,232.33c-1.31,0-2.41.39-3.3,1.18s-1.41,1.8-1.58,3.05h9.43c-.17-1.33-.68-2.37-1.54-3.11-.86-.74-1.86-1.11-3.01-1.11Z"/>
  <path class="st0" d="M208.65,225.96h1.67v17.69h-1.67v-2.48c-1.16,1.85-2.87,2.78-5.11,2.78-1.8,0-3.34-.64-4.61-1.92-1.27-1.28-1.91-2.85-1.91-4.7s.64-3.42,1.91-4.7c1.27-1.28,2.81-1.92,4.61-1.92,2.24,0,3.94.93,5.11,2.78v-7.53ZM200.13,240.89c.96.97,2.14,1.45,3.54,1.45s2.58-.48,3.54-1.45c.96-.97,1.44-2.15,1.44-3.55s-.48-2.58-1.44-3.55c-.96-.97-2.14-1.45-3.54-1.45s-2.58.48-3.54,1.45c-.96.97-1.44,2.15-1.44,3.55s.48,2.58,1.44,3.55Z"/>
  <path class="st0" d="M219.7,230.71c1.87,0,3.38.66,4.54,1.98,1.15,1.32,1.73,2.89,1.73,4.69,0,.19-.02.45-.05.78h-11.1c.17,1.28.71,2.3,1.63,3.05.92.75,2.05,1.12,3.4,1.12.96,0,1.79-.2,2.49-.59.7-.4,1.23-.91,1.58-1.55l1.47.86c-.56.89-1.31,1.6-2.27,2.12-.96.52-2.06.78-3.29.78-1.99,0-3.61-.62-4.85-1.87-1.25-1.25-1.87-2.83-1.87-4.75s.61-3.46,1.85-4.73c1.23-1.26,2.81-1.9,4.75-1.9ZM219.7,232.33c-1.31,0-2.41.39-3.3,1.18s-1.41,1.8-1.58,3.05h9.43c-.17-1.33-.68-2.37-1.54-3.11-.86-.74-1.86-1.11-3.01-1.11Z"/>
  <path class="st0" d="M228.62,243.66v-18.45h1.67v18.45h-1.67Z"/>
  <path class="st0" d="M235.52,227.98c-.24.24-.52.35-.86.35s-.62-.12-.86-.35c-.24-.24-.35-.52-.35-.86s.12-.62.35-.86c.24-.24.52-.35.86-.35s.62.12.86.35c.24.24.35.52.35.86s-.12.62-.35.86ZM233.83,243.66v-12.64h1.67v12.64h-1.67Z"/>
  <path class="st0" d="M248.14,231.02h1.77l-5.18,12.64h-2.02l-5.18-12.64h1.77l4.42,10.86,4.42-10.86Z"/>
  <path class="st0" d="M257.26,230.71c1.87,0,3.38.66,4.54,1.98,1.15,1.32,1.73,2.89,1.73,4.69,0,.19-.02.45-.05.78h-11.1c.17,1.28.71,2.3,1.63,3.05.92.75,2.05,1.12,3.4,1.12.96,0,1.79-.2,2.49-.59.7-.4,1.23-.91,1.58-1.55l1.47.86c-.56.89-1.31,1.6-2.27,2.12-.96.52-2.06.78-3.29.78-1.99,0-3.61-.62-4.85-1.87-1.25-1.25-1.87-2.83-1.87-4.75s.61-3.46,1.85-4.73c1.23-1.26,2.81-1.9,4.75-1.9ZM257.26,232.33c-1.31,0-2.41.39-3.3,1.18s-1.41,1.8-1.58,3.05h9.43c-.17-1.33-.68-2.37-1.54-3.11-.86-.74-1.86-1.11-3.01-1.11Z"/>
  <path class="st0" d="M267.85,233.11c.78-1.53,2.11-2.3,3.99-2.3v1.62c-1.15,0-2.1.34-2.86,1.01-.76.67-1.14,1.74-1.14,3.19v7.03h-1.67v-12.64h1.67v2.1Z"/>
  <path class="st0" d="M287.14,232.63h-3.64v7.66c0,.69.13,1.18.4,1.48.27.29.67.45,1.21.46.54,0,1.21,0,2.02-.04v1.47c-1.77.27-3.1.14-3.98-.38-.88-.52-1.33-1.52-1.33-2.98v-7.66h-2.65v-1.62h2.65v-3.03l1.67-.51v3.54h3.64v1.62Z"/>
  <path class="st0" d="M295,230.71c1.87,0,3.38.66,4.54,1.98,1.15,1.32,1.73,2.89,1.73,4.69,0,.19-.02.45-.05.78h-11.1c.17,1.28.71,2.3,1.63,3.05.92.75,2.05,1.12,3.4,1.12.96,0,1.79-.2,2.49-.59.7-.4,1.23-.91,1.58-1.55l1.47.86c-.56.89-1.31,1.6-2.27,2.12-.96.52-2.06.78-3.29.78-1.99,0-3.61-.62-4.85-1.87-1.25-1.25-1.87-2.83-1.87-4.75s.61-3.46,1.85-4.73c1.23-1.26,2.81-1.9,4.75-1.9ZM295,232.33c-1.31,0-2.41.39-3.3,1.18s-1.41,1.8-1.58,3.05h9.43c-.17-1.33-.68-2.37-1.54-3.11-.86-.74-1.86-1.11-3.01-1.11Z"/>
  <path class="st0" d="M309.81,243.96c-1.9,0-3.49-.64-4.75-1.91-1.26-1.27-1.9-2.84-1.9-4.71s.63-3.44,1.9-4.71c1.26-1.27,2.85-1.91,4.75-1.91,1.25,0,2.37.3,3.36.9.99.6,1.72,1.4,2.17,2.41l-1.37.78c-.34-.76-.88-1.36-1.63-1.81-.75-.45-1.6-.67-2.54-.67-1.4,0-2.58.48-3.54,1.45-.96.97-1.44,2.15-1.44,3.55s.48,2.58,1.44,3.55c.96.97,2.14,1.45,3.54,1.45.94,0,1.79-.22,2.53-.67.74-.45,1.32-1.05,1.74-1.81l1.39.81c-.52,1.01-1.29,1.81-2.3,2.4-1.01.59-2.13.88-3.36.88Z"/>
  <path class="st0" d="M323.79,230.71c1.53,0,2.74.47,3.63,1.4.88.94,1.33,2.2,1.33,3.78v7.76h-1.67v-7.76c0-1.13-.3-2.01-.9-2.63-.6-.62-1.44-.94-2.54-.94-1.21,0-2.2.38-2.96,1.15-.76.77-1.14,1.95-1.14,3.55v6.62h-1.67v-17.69h1.67v7.03c.94-1.52,2.36-2.27,4.25-2.27Z"/>
  <path class="st0" d="M337.9,230.71c1.53,0,2.74.47,3.63,1.4.88.94,1.33,2.2,1.33,3.78v7.76h-1.67v-7.76c0-1.13-.3-2.01-.9-2.63-.6-.62-1.44-.94-2.54-.94-1.21,0-2.2.38-2.96,1.15-.76.77-1.14,1.95-1.14,3.55v6.62h-1.67v-12.64h1.67v1.97c.94-1.52,2.36-2.27,4.25-2.27Z"/>
  <path class="st0" d="M356.69,242.05c-1.29,1.27-2.86,1.91-4.71,1.91s-3.43-.64-4.71-1.91-1.93-2.84-1.93-4.71.64-3.44,1.93-4.71c1.29-1.27,2.86-1.91,4.71-1.91s3.43.64,4.71,1.91c1.29,1.27,1.93,2.84,1.93,4.71s-.64,3.44-1.93,4.71ZM348.44,240.89c.96.97,2.14,1.45,3.54,1.45s2.58-.48,3.54-1.45c.96-.97,1.44-2.15,1.44-3.55s-.48-2.58-1.44-3.55c-.96-.97-2.14-1.45-3.54-1.45s-2.58.48-3.54,1.45c-.96.97-1.44,2.15-1.44,3.55s.48,2.58,1.44,3.55Z"/>
  <path class="st0" d="M361.41,243.66v-18.45h1.67v18.45h-1.67Z"/>
  <path class="st0" d="M377.22,242.05c-1.29,1.27-2.86,1.91-4.71,1.91s-3.43-.64-4.71-1.91-1.93-2.84-1.93-4.71.64-3.44,1.93-4.71c1.29-1.27,2.86-1.91,4.71-1.91s3.43.64,4.71,1.91c1.29,1.27,1.93,2.84,1.93,4.71s-.64,3.44-1.93,4.71ZM368.97,240.89c.96.97,2.14,1.45,3.54,1.45s2.58-.48,3.54-1.45c.96-.97,1.44-2.15,1.44-3.55s-.48-2.58-1.44-3.55c-.96-.97-2.14-1.45-3.54-1.45s-2.58.48-3.54,1.45c-.96.97-1.44,2.15-1.44,3.55s.48,2.58,1.44,3.55Z"/>
  <path class="st0" d="M392.8,231.02h1.67v12.13c0,1.82-.62,3.25-1.87,4.3-1.25,1.04-2.74,1.57-4.47,1.57-2.97,0-4.96-1.03-5.99-3.08l1.47-.83c.76,1.53,2.27,2.3,4.52,2.3,1.45,0,2.59-.38,3.42-1.15.83-.77,1.25-1.8,1.25-3.1v-1.97c-1.16,1.85-2.87,2.78-5.11,2.78-1.8,0-3.34-.64-4.61-1.92s-1.91-2.85-1.91-4.7.64-3.42,1.91-4.7c1.27-1.28,2.81-1.92,4.61-1.92,2.24,0,3.94.93,5.11,2.78v-2.48ZM384.28,240.89c.96.97,2.14,1.45,3.54,1.45s2.58-.48,3.54-1.45c.96-.97,1.44-2.15,1.44-3.55s-.48-2.58-1.44-3.55c-.96-.97-2.14-1.45-3.54-1.45s-2.58.48-3.54,1.45c-.96.97-1.44,2.15-1.44,3.55s.48,2.58,1.44,3.55Z"/>
  <path class="st0" d="M407.11,231.02h1.77l-5.41,13.8c-.49,1.25-1.18,2.23-2.09,2.95-.9.72-1.91,1.03-3.02.95v-1.57c1.51.17,2.67-.71,3.46-2.63l.32-.82-5.65-12.68h1.77l4.73,10.5,4.12-10.5Z"/>
</svg>